<?xml version="1.0" encoding="UTF-8" standalone="no"?>
<svg width="11.2889mm" height="11.2889mm"
 viewBox="0 0 32 32"
 xmlns="http://www.w3.org/2000/svg" xmlns:xlink="http://www.w3.org/1999/xlink"  version="1.2" baseProfile="tiny">
<title>Qt Svg Document</title>
<desc>Generated with Qt</desc>
<defs>
</defs>
<g fill="none" stroke="black" stroke-width="1" fill-rule="evenodd" stroke-linecap="square" stroke-linejoin="bevel" >

<g fill="#e8e8e8" fill-opacity="1" stroke="#000000" stroke-opacity="1" stroke-width="0.737008" stroke-linecap="square" stroke-linejoin="bevel" transform="matrix(1,0,0,1,0,0)"
font-family="MS Shell Dlg 2" font-size="8.25" font-weight="400" font-style="normal" 
>
<path vector-effect="none" fill-rule="evenodd" d="M0,0 L32,0 L32,32 L0,32 L0,0"/>
</g>

<g fill="none" stroke="#e8dc1e" stroke-opacity="1" stroke-width="6.23622" stroke-linecap="square" stroke-linejoin="bevel" transform="matrix(1,0,0,1,0,0)"
font-family="MS Shell Dlg 2" font-size="8.25" font-weight="400" font-style="normal" 
>
<path vector-effect="none" fill-rule="evenodd" d="M0,0 L31,0 L31,31 L0,31 L0,0"/>
</g>

<g fill="#000000" fill-opacity="1" stroke="none" transform="matrix(1,0,0,1,0,0)"
font-family="MS Shell Dlg 2" font-size="8.25" font-weight="400" font-style="normal" 
>
<path vector-effect="non-scaling-stroke" fill-rule="evenodd" d="M20.4272,2.37307 C20.3605,2.32974 20.3055,2.28307 20.2622,2.23307 C20.2288,2.1964 20.2088,2.06974 20.2022,1.85307 C20.1955,1.6364 20.1905,0.951404 20.1872,-0.201929 L20.1772,-2.56693 L21.4372,-2.55693 L22.6922,-2.54693 L22.8622,-2.45693 C23.0822,-2.34026 23.2522,-2.17026 23.3722,-1.94693 C23.4122,-1.87026 23.4372,-1.80193 23.4472,-1.74193 C23.4572,-1.68193 23.4622,-1.55026 23.4622,-1.34693 C23.4622,-1.1436 23.4572,-1.0111 23.4472,-0.949429 C23.4372,-0.887762 23.4105,-0.813596 23.3672,-0.726929 C23.2105,-0.403596 22.9372,-0.201929 22.5472,-0.121929 L22.3522,-0.0819291 L22.9022,0.863071 C23.0355,1.08974 23.1347,1.26307 23.1997,1.38307 C23.2647,1.50307 23.323,1.61307 23.3747,1.71307 C23.4263,1.81307 23.4555,1.88807 23.4622,1.93807 C23.4688,1.98807 23.4688,2.0314 23.4622,2.06807 C23.4555,2.10474 23.4388,2.1464 23.4122,2.19307 C23.3688,2.26307 23.3088,2.32057 23.2322,2.36557 C23.1555,2.41057 23.0805,2.43307 23.0072,2.43307 C22.9405,2.43307 22.888,2.42557 22.8497,2.41057 C22.8113,2.39557 22.7513,2.33557 22.6697,2.23057 C22.588,2.12557 22.5022,1.9989 22.4122,1.85057 C22.3222,1.70224 22.1755,1.4514 21.9722,1.09807 C21.6788,0.598071 21.4855,0.275571 21.3922,0.130571 C21.2988,-0.0144291 21.2338,-0.0885958 21.1972,-0.0919291 L21.1172,-0.101929 L21.1022,0.988071 C21.0988,1.58474 21.0872,1.94557 21.0672,2.07057 C21.0472,2.19557 20.9888,2.28974 20.8922,2.35307 C20.8288,2.3964 20.7505,2.41974 20.6572,2.42307 C20.5638,2.4264 20.4872,2.40974 20.4272,2.37307 M21.7872,-1.03193 C22.2372,-1.03193 22.4755,-1.04526 22.5022,-1.07193 C22.5288,-1.0986 22.5422,-1.18526 22.5422,-1.33193 C22.5422,-1.4786 22.5288,-1.56526 22.5022,-1.59193 C22.4755,-1.6186 22.2372,-1.63193 21.7872,-1.63193 L21.1122,-1.63193 L21.1122,-1.33193 L21.1122,-1.03193 L21.7872,-1.03193"/>
</g>

<g fill="#000000" fill-opacity="1" stroke="none" transform="matrix(1,0,0,1,0,0)"
font-family="MS Shell Dlg 2" font-size="8.25" font-weight="400" font-style="normal" 
>
</g>

<g fill="#000000" fill-opacity="1" stroke="none" transform="matrix(1,0,0,1,0,0)"
font-family="MS Shell Dlg 2" font-size="8.25" font-weight="400" font-style="normal" 
>
<path vector-effect="non-scaling-stroke" fill-rule="evenodd" d="M15.8799,28.6269 C15.9466,28.6703 16.0016,28.7169 16.0449,28.7669 C16.0783,28.8036 16.0983,28.9303 16.1049,29.1469 C16.1116,29.3636 16.1166,30.0486 16.1199,31.2019 L16.1299,33.5669 L14.8699,33.5569 L13.6149,33.5469 L13.4449,33.4569 C13.2249,33.3403 13.0549,33.1703 12.9349,32.9469 C12.8949,32.8703 12.8699,32.8019 12.8599,32.7419 C12.8499,32.6819 12.8449,32.5503 12.8449,32.3469 C12.8449,32.1436 12.8499,32.0111 12.8599,31.9494 C12.8699,31.8878 12.8966,31.8136 12.9399,31.7269 C13.0966,31.4036 13.3699,31.2019 13.7599,31.1219 L13.9549,31.0819 L13.4049,30.1369 C13.2716,29.9103 13.1724,29.7369 13.1074,29.6169 C13.0424,29.4969 12.9841,29.3869 12.9324,29.2869 C12.8808,29.1869 12.8516,29.1119 12.8449,29.0619 C12.8383,29.0119 12.8383,28.9686 12.8449,28.9319 C12.8516,28.8953 12.8683,28.8536 12.8949,28.8069 C12.9383,28.7369 12.9983,28.6794 13.0749,28.6344 C13.1516,28.5894 13.2266,28.5669 13.2999,28.5669 C13.3666,28.5669 13.4191,28.5744 13.4574,28.5894 C13.4958,28.6044 13.5558,28.6644 13.6374,28.7694 C13.7191,28.8744 13.8049,29.0011 13.8949,29.1494 C13.9849,29.2978 14.1316,29.5486 14.3349,29.9019 C14.6283,30.4019 14.8216,30.7244 14.9149,30.8694 C15.0083,31.0144 15.0733,31.0886 15.1099,31.0919 L15.1899,31.1019 L15.2049,30.0119 C15.2083,29.4153 15.2199,29.0544 15.2399,28.9294 C15.2599,28.8044 15.3183,28.7103 15.4149,28.6469 C15.4783,28.6036 15.5566,28.5803 15.6499,28.5769 C15.7433,28.5736 15.8199,28.5903 15.8799,28.6269 M14.5199,32.0319 C14.0699,32.0319 13.8316,32.0453 13.8049,32.0719 C13.7783,32.0986 13.7649,32.1853 13.7649,32.3319 C13.7649,32.4786 13.7783,32.5653 13.8049,32.5919 C13.8316,32.6186 14.0699,32.6319 14.5199,32.6319 L15.1949,32.6319 L15.1949,32.3319 L15.1949,32.0319 L14.5199,32.0319"/>
</g>

<g fill="#000000" fill-opacity="1" stroke="none" transform="matrix(1,0,0,1,0,0)"
font-family="MS Shell Dlg 2" font-size="8.25" font-weight="400" font-style="normal" 
>
</g>

<g fill="none" stroke="#e8dc1e" stroke-opacity="1" stroke-width="6.23622" stroke-linecap="square" stroke-linejoin="bevel" transform="matrix(1,0,0,1,0,0)"
font-family="MS Shell Dlg 2" font-size="8.25" font-weight="400" font-style="normal" 
>
</g>

<g fill="#000000" fill-opacity="1" stroke="none" transform="matrix(1,0,0,1,0,0)"
font-family="MS Shell Dlg 2" font-size="8.25" font-weight="400" font-style="normal" 
>
<path vector-effect="non-scaling-stroke" fill-rule="evenodd" d="M14.5079,-0.0669291 L14.5079,-2.56693 L15.9829,-2.56693 C16.6895,-2.56693 17.117,-2.5636 17.2654,-2.55693 C17.4137,-2.55026 17.5129,-2.53026 17.5629,-2.49693 C17.7129,-2.40693 17.792,-2.2811 17.8004,-2.11943 C17.8087,-1.95776 17.7429,-1.82693 17.6029,-1.72693 C17.5462,-1.69026 17.4704,-1.66776 17.3754,-1.65943 C17.2804,-1.6511 16.9779,-1.6436 16.4679,-1.63693 L15.4429,-1.62693 L15.4429,-1.08193 L15.4429,-0.531929 L15.8429,-0.531929 C16.0595,-0.531929 16.2054,-0.521929 16.2804,-0.501929 C16.3554,-0.481929 16.4312,-0.431929 16.5079,-0.351929 C16.5412,-0.315262 16.5629,-0.278596 16.5729,-0.241929 C16.5829,-0.205262 16.5879,-0.146929 16.5879,-0.0669291 C16.5879,0.0130709 16.5829,0.0714042 16.5729,0.108071 C16.5629,0.144738 16.5412,0.181404 16.5079,0.218071 C16.4379,0.291404 16.3595,0.339738 16.2729,0.363071 C16.1862,0.386404 16.0362,0.398071 15.8229,0.398071 L15.4429,0.398071 L15.4429,0.948071 L15.4429,1.49307 L16.4679,1.50307 C17.0345,1.50974 17.3712,1.52307 17.4779,1.54307 C17.5845,1.56307 17.6729,1.62974 17.7429,1.74307 C17.8062,1.8464 17.8204,1.9589 17.7854,2.08057 C17.7504,2.20224 17.6762,2.2964 17.5629,2.36307 C17.5129,2.3964 17.4137,2.4164 17.2654,2.42307 C17.117,2.42974 16.6895,2.43307 15.9829,2.43307 L14.5079,2.43307 L14.5079,-0.0669291"/>
</g>

<g fill="#000000" fill-opacity="1" stroke="none" transform="matrix(1,0,0,1,0,0)"
font-family="MS Shell Dlg 2" font-size="8.25" font-weight="400" font-style="normal" 
>
</g>

<g fill="#000000" fill-opacity="1" stroke="none" transform="matrix(1,0,0,1,0,0)"
font-family="MS Shell Dlg 2" font-size="8.25" font-weight="400" font-style="normal" 
>
<path vector-effect="non-scaling-stroke" fill-rule="evenodd" d="M21.7992,31.0669 L21.7992,33.5669 L20.3242,33.5669 C19.6175,33.5669 19.19,33.5636 19.0417,33.5569 C18.8934,33.5503 18.7942,33.5303 18.7442,33.4969 C18.5942,33.4069 18.515,33.2811 18.5067,33.1194 C18.4984,32.9578 18.5642,32.8269 18.7042,32.7269 C18.7609,32.6903 18.8367,32.6678 18.9317,32.6594 C19.0267,32.6511 19.3292,32.6436 19.8392,32.6369 L20.8642,32.6269 L20.8642,32.0819 L20.8642,31.5319 L20.4642,31.5319 C20.2475,31.5319 20.1017,31.5219 20.0267,31.5019 C19.9517,31.4819 19.8759,31.4319 19.7992,31.3519 C19.7659,31.3153 19.7442,31.2786 19.7342,31.2419 C19.7242,31.2053 19.7192,31.1469 19.7192,31.0669 C19.7192,30.9869 19.7242,30.9286 19.7342,30.8919 C19.7442,30.8553 19.7659,30.8186 19.7992,30.7819 C19.8692,30.7086 19.9475,30.6603 20.0342,30.6369 C20.1209,30.6136 20.2709,30.6019 20.4842,30.6019 L20.8642,30.6019 L20.8642,30.0519 L20.8642,29.5069 L19.8392,29.4969 C19.2725,29.4903 18.9359,29.4769 18.8292,29.4569 C18.7225,29.4369 18.6342,29.3703 18.5642,29.2569 C18.5009,29.1536 18.4867,29.0411 18.5217,28.9194 C18.5567,28.7978 18.6309,28.7036 18.7442,28.6369 C18.7942,28.6036 18.8934,28.5836 19.0417,28.5769 C19.19,28.5703 19.6175,28.5669 20.3242,28.5669 L21.7992,28.5669 L21.7992,31.0669"/>
</g>

<g fill="#000000" fill-opacity="1" stroke="none" transform="matrix(1,0,0,1,0,0)"
font-family="MS Shell Dlg 2" font-size="8.25" font-weight="400" font-style="normal" 
>
</g>

<g fill="none" stroke="#e8dc1e" stroke-opacity="1" stroke-width="6.23622" stroke-linecap="square" stroke-linejoin="bevel" transform="matrix(1,0,0,1,0,0)"
font-family="MS Shell Dlg 2" font-size="8.25" font-weight="400" font-style="normal" 
>
</g>

<g fill="#000000" fill-opacity="1" stroke="none" transform="matrix(1,0,0,1,0,0)"
font-family="MS Shell Dlg 2" font-size="8.25" font-weight="400" font-style="normal" 
>
<path vector-effect="non-scaling-stroke" fill-rule="evenodd" d="M8.84358,-0.0669291 L8.84358,-2.57193 L9.97358,-2.55693 L11.0986,-2.54693 L11.3486,-2.42693 C11.6519,-2.27693 11.8752,-2.0486 12.0186,-1.74193 C12.0719,-1.63193 12.1036,-1.54693 12.1136,-1.48693 C12.1236,-1.42693 12.1286,-1.29193 12.1286,-1.08193 C12.1286,-0.848596 12.1144,-0.679429 12.0861,-0.574429 C12.0577,-0.469429 11.9919,-0.341929 11.8886,-0.191929 L11.8036,-0.0669291 L11.8886,0.0580709 C11.9919,0.208071 12.0577,0.335571 12.0861,0.440571 C12.1144,0.545571 12.1286,0.714738 12.1286,0.948071 C12.1286,1.15807 12.1236,1.29307 12.1136,1.35307 C12.1036,1.41307 12.0719,1.49807 12.0186,1.60807 C11.8752,1.91474 11.6519,2.14307 11.3486,2.29307 L11.0986,2.41307 L9.97358,2.42307 L8.84358,2.43807 L8.84358,-0.0669291 M10.9986,1.43307 C11.0752,1.3864 11.1294,1.3264 11.1611,1.25307 C11.1927,1.17974 11.2086,1.0789 11.2086,0.950571 C11.2086,0.822238 11.1927,0.720571 11.1611,0.645571 C11.1294,0.570571 11.0752,0.509738 10.9986,0.463071 C10.9519,0.436404 10.8919,0.418904 10.8186,0.410571 C10.7452,0.402238 10.5852,0.398071 10.3386,0.398071 L9.77858,0.398071 L9.77858,0.948071 L9.77858,1.49807 L10.3386,1.49807 C10.5852,1.49807 10.7452,1.49474 10.8186,1.48807 C10.8919,1.4814 10.9519,1.46307 10.9986,1.43307 M10.9986,-0.596929 C11.0752,-0.643596 11.1294,-0.704429 11.1611,-0.779429 C11.1927,-0.854429 11.2086,-0.956096 11.2086,-1.08443 C11.2086,-1.21276 11.1927,-1.3136 11.1611,-1.38693 C11.1294,-1.46026 11.0752,-1.52026 10.9986,-1.56693 C10.9519,-1.59693 10.8919,-1.61526 10.8186,-1.62193 C10.7452,-1.6286 10.5852,-1.63193 10.3386,-1.63193 L9.77858,-1.63193 L9.77858,-1.08193 L9.77858,-0.531929 L10.3386,-0.531929 C10.5852,-0.531929 10.7452,-0.536096 10.8186,-0.544429 C10.8919,-0.552762 10.9519,-0.570262 10.9986,-0.596929 "/>
</g>

<g fill="#000000" fill-opacity="1" stroke="none" transform="matrix(1,0,0,1,0,0)"
font-family="MS Shell Dlg 2" font-size="8.25" font-weight="400" font-style="normal" 
>
</g>

<g fill="#000000" fill-opacity="1" stroke="none" transform="matrix(1,0,0,1,0,0)"
font-family="MS Shell Dlg 2" font-size="8.25" font-weight="400" font-style="normal" 
>
<path vector-effect="non-scaling-stroke" fill-rule="evenodd" d="M27.4635,31.0669 L27.4635,33.5719 L26.3335,33.5569 L25.2085,33.5469 L24.9585,33.4269 C24.6552,33.2769 24.4318,33.0486 24.2885,32.7419 C24.2352,32.6319 24.2035,32.5469 24.1935,32.4869 C24.1835,32.4269 24.1785,32.2919 24.1785,32.0819 C24.1785,31.8486 24.1927,31.6794 24.221,31.5744 C24.2493,31.4694 24.3152,31.3419 24.4185,31.1919 L24.5035,31.0669 L24.4185,30.9419 C24.3152,30.7919 24.2493,30.6644 24.221,30.5594 C24.1927,30.4544 24.1785,30.2853 24.1785,30.0519 C24.1785,29.8419 24.1835,29.7069 24.1935,29.6469 C24.2035,29.5869 24.2352,29.5019 24.2885,29.3919 C24.4318,29.0853 24.6552,28.8569 24.9585,28.7069 L25.2085,28.5869 L26.3335,28.5769 L27.4635,28.5619 L27.4635,31.0669 M25.3085,29.5669 C25.2318,29.6136 25.1777,29.6736 25.146,29.7469 C25.1143,29.8203 25.0985,29.9211 25.0985,30.0494 C25.0985,30.1778 25.1143,30.2794 25.146,30.3544 C25.1777,30.4294 25.2318,30.4903 25.3085,30.5369 C25.3552,30.5636 25.4152,30.5811 25.4885,30.5894 C25.5618,30.5978 25.7218,30.6019 25.9685,30.6019 L26.5285,30.6019 L26.5285,30.0519 L26.5285,29.5019 L25.9685,29.5019 C25.7218,29.5019 25.5618,29.5053 25.4885,29.5119 C25.4152,29.5186 25.3552,29.5369 25.3085,29.5669 M25.3085,31.5969 C25.2318,31.6436 25.1777,31.7044 25.146,31.7794 C25.1143,31.8544 25.0985,31.9561 25.0985,32.0844 C25.0985,32.2128 25.1143,32.3136 25.146,32.3869 C25.1777,32.4603 25.2318,32.5203 25.3085,32.5669 C25.3552,32.5969 25.4152,32.6153 25.4885,32.6219 C25.5618,32.6286 25.7218,32.6319 25.9685,32.6319 L26.5285,32.6319 L26.5285,32.0819 L26.5285,31.5319 L25.9685,31.5319 C25.7218,31.5319 25.5618,31.5361 25.4885,31.5444 C25.4152,31.5528 25.3552,31.5703 25.3085,31.5969 "/>
</g>

<g fill="#000000" fill-opacity="1" stroke="none" transform="matrix(1,0,0,1,0,0)"
font-family="MS Shell Dlg 2" font-size="8.25" font-weight="400" font-style="normal" 
>
</g>

<g fill="none" stroke="#e8dc1e" stroke-opacity="1" stroke-width="6.23622" stroke-linecap="square" stroke-linejoin="bevel" transform="matrix(1,0,0,1,0,0)"
font-family="MS Shell Dlg 2" font-size="8.25" font-weight="400" font-style="normal" 
>
</g>

<g fill="#000000" fill-opacity="1" stroke="none" transform="matrix(1,0,0,1,0,0)"
font-family="MS Shell Dlg 2" font-size="8.25" font-weight="400" font-style="normal" 
>
<path vector-effect="non-scaling-stroke" fill-rule="evenodd" d="M4.61429,2.38307 C4.54096,2.3464 4.48262,2.2914 4.43929,2.21807 C4.40596,2.16807 4.38679,2.0889 4.38179,1.98057 C4.37679,1.87224 4.37429,1.5814 4.37429,1.10807 L4.37429,0.108071 L3.77429,-0.661929 L3.17429,-1.43193 L3.17429,-1.82193 C3.17429,-1.9886 3.17846,-2.10193 3.18679,-2.16193 C3.19512,-2.22193 3.21262,-2.27526 3.23929,-2.32193 C3.32929,-2.4686 3.45512,-2.5461 3.61679,-2.55443 C3.77846,-2.56276 3.90762,-2.4986 4.00429,-2.36193 C4.05762,-2.2886 4.08929,-2.1636 4.09929,-1.98693 L4.11429,-1.71693 L4.46429,-1.27693 C4.69429,-0.980262 4.81346,-0.831929 4.82179,-0.831929 C4.83012,-0.831929 4.95096,-0.983596 5.18429,-1.28693 L5.53929,-1.73693 L5.53929,-1.95693 C5.53929,-2.3236 5.68429,-2.52193 5.97429,-2.55193 C6.15762,-2.57193 6.30096,-2.49526 6.40429,-2.32193 C6.43096,-2.27526 6.44846,-2.22193 6.45679,-2.16193 C6.46512,-2.10193 6.46929,-1.9886 6.46929,-1.82193 L6.46929,-1.43193 L5.86929,-0.666929 L5.26929,0.103071 L5.26929,1.08807 C5.26929,1.2614 5.26929,1.39557 5.26929,1.49057 C5.26929,1.58557 5.26846,1.68224 5.26679,1.78057 C5.26512,1.8789 5.26096,1.95057 5.25429,1.99557 C5.24762,2.04057 5.24096,2.08557 5.23429,2.13057 C5.22762,2.17557 5.21596,2.2089 5.19929,2.23057 C5.18262,2.25224 5.16679,2.2714 5.15179,2.28807 C5.13679,2.30474 5.11429,2.32474 5.08429,2.34807 C5.02429,2.3914 4.94762,2.4164 4.85429,2.42307 C4.76096,2.42974 4.68096,2.4164 4.61429,2.38307 "/>
</g>

<g fill="#000000" fill-opacity="1" stroke="none" transform="matrix(1,0,0,1,0,0)"
font-family="MS Shell Dlg 2" font-size="8.25" font-weight="400" font-style="normal" 
>
</g>

<g fill="#000000" fill-opacity="1" stroke="none" transform="matrix(1,0,0,1,0,0)"
font-family="MS Shell Dlg 2" font-size="8.25" font-weight="400" font-style="normal" 
>
<path vector-effect="non-scaling-stroke" fill-rule="evenodd" d="M31.6928,28.6169 C31.7661,28.6536 31.8245,28.7086 31.8678,28.7819 C31.9011,28.8319 31.9203,28.9111 31.9253,29.0194 C31.9303,29.1278 31.9328,29.4186 31.9328,29.8919 L31.9328,30.8919 L32.5328,31.6619 L33.1328,32.4319 L33.1328,32.8219 C33.1328,32.9886 33.1286,33.1019 33.1203,33.1619 C33.112,33.2219 33.0945,33.2753 33.0678,33.3219 C32.9778,33.4686 32.852,33.5461 32.6903,33.5544 C32.5286,33.5628 32.3995,33.4986 32.3028,33.3619 C32.2495,33.2886 32.2178,33.1636 32.2078,32.9869 L32.1928,32.7169 L31.8428,32.2769 C31.6128,31.9803 31.4936,31.8319 31.4853,31.8319 C31.477,31.8319 31.3561,31.9836 31.1228,32.2869 L30.7678,32.7369 L30.7678,32.9569 C30.7678,33.3236 30.6228,33.5219 30.3328,33.5519 C30.1495,33.5719 30.0061,33.4953 29.9028,33.3219 C29.8761,33.2753 29.8586,33.2219 29.8503,33.1619 C29.842,33.1019 29.8378,32.9886 29.8378,32.8219 L29.8378,32.4319 L30.4378,31.6669 L31.0378,30.8969 L31.0378,29.9119 C31.0378,29.7386 31.0378,29.6044 31.0378,29.5094 C31.0378,29.4144 31.0386,29.3178 31.0403,29.2194 C31.042,29.1211 31.0461,29.0494 31.0528,29.0044 C31.0595,28.9594 31.0661,28.9144 31.0728,28.8694 C31.0795,28.8244 31.0911,28.7911 31.1078,28.7694 C31.1245,28.7478 31.1403,28.7286 31.1553,28.7119 C31.1703,28.6953 31.1928,28.6753 31.2228,28.6519 C31.2828,28.6086 31.3595,28.5836 31.4528,28.5769 C31.5461,28.5703 31.6261,28.5836 31.6928,28.6169 "/>
</g>

<g fill="#000000" fill-opacity="1" stroke="none" transform="matrix(1,0,0,1,0,0)"
font-family="MS Shell Dlg 2" font-size="8.25" font-weight="400" font-style="normal" 
>
</g>

<g fill="#000000" fill-opacity="1" stroke="none" transform="matrix(1,0,0,1,0,0)"
font-family="MS Shell Dlg 2" font-size="8.25" font-weight="400" font-style="normal" 
>
<path vector-effect="non-scaling-stroke" fill-rule="evenodd" d="M2.38307,5.99988 C2.3464,6.07322 2.2914,6.13155 2.21807,6.17488 C2.16807,6.20822 2.0889,6.22738 1.98057,6.23238 C1.87224,6.23738 1.5814,6.23988 1.10807,6.23988 L0.108071,6.23988 L-0.661929,6.83988 L-1.43193,7.43988 L-1.82193,7.43988 C-1.9886,7.43988 -2.10193,7.43572 -2.16193,7.42738 C-2.22193,7.41905 -2.27526,7.40155 -2.32193,7.37488 C-2.4686,7.28488 -2.5461,7.15905 -2.55443,6.99738 C-2.56276,6.83572 -2.4986,6.70655 -2.36193,6.60988 C-2.2886,6.55655 -2.1636,6.52488 -1.98693,6.51488 L-1.71693,6.49988 L-1.27693,6.14988 C-0.980262,5.91988 -0.831929,5.80072 -0.831929,5.79238 C-0.831929,5.78405 -0.983596,5.66322 -1.28693,5.42988 L-1.73693,5.07488 L-1.95693,5.07488 C-2.3236,5.07488 -2.52193,4.92988 -2.55193,4.63988 C-2.57193,4.45655 -2.49526,4.31322 -2.32193,4.20988 C-2.27526,4.18322 -2.22193,4.16572 -2.16193,4.15738 C-2.10193,4.14905 -1.9886,4.14488 -1.82193,4.14488 L-1.43193,4.14488 L-0.666929,4.74488 L0.103071,5.34488 L1.08807,5.34488 C1.2614,5.34488 1.39557,5.34488 1.49057,5.34488 C1.58557,5.34488 1.68224,5.34572 1.78057,5.34738 C1.8789,5.34905 1.95057,5.35322 1.99557,5.35988 C2.04057,5.36655 2.08557,5.37322 2.13057,5.37988 C2.17557,5.38655 2.2089,5.39822 2.23057,5.41488 C2.25224,5.43155 2.2714,5.44738 2.28807,5.46238 C2.30474,5.47738 2.32474,5.49988 2.34807,5.52988 C2.3914,5.58988 2.4164,5.66655 2.42307,5.75988 C2.42974,5.85322 2.4164,5.93322 2.38307,5.99988 "/>
</g>

<g fill="#000000" fill-opacity="1" stroke="none" transform="matrix(1,0,0,1,0,0)"
font-family="MS Shell Dlg 2" font-size="8.25" font-weight="400" font-style="normal" 
>
</g>

<g fill="none" stroke="#e8dc1e" stroke-opacity="1" stroke-width="6.23622" stroke-linecap="square" stroke-linejoin="bevel" transform="matrix(1,0,0,1,0,0)"
font-family="MS Shell Dlg 2" font-size="8.25" font-weight="400" font-style="normal" 
>
</g>

<g fill="#000000" fill-opacity="1" stroke="none" transform="matrix(1,0,0,1,0,0)"
font-family="MS Shell Dlg 2" font-size="8.25" font-weight="400" font-style="normal" 
>
<path vector-effect="non-scaling-stroke" fill-rule="evenodd" d="M-1.095,2.37307 C-1.195,2.33974 -1.29167,2.29057 -1.385,2.22557 C-1.47833,2.16057 -1.55333,2.0914 -1.61,2.01807 C-1.68333,1.9214 -1.83417,1.64057 -2.0625,1.17557 C-2.29083,0.710571 -2.41833,0.424738 -2.445,0.318071 C-2.51167,0.0580709 -2.51167,-0.195262 -2.445,-0.441929 C-2.41167,-0.568596 -2.26833,-0.885262 -2.015,-1.39193 C-1.81167,-1.80193 -1.66417,-2.06693 -1.5725,-2.18693 C-1.48083,-2.30693 -1.35667,-2.4036 -1.2,-2.47693 C-1.13,-2.51026 -1.0475,-2.5311 -0.9525,-2.53943 C-0.8575,-2.54776 -0.638333,-2.5536 -0.295,-2.55693 C0.055,-2.5636 0.2725,-2.5636 0.3575,-2.55693 C0.4425,-2.55026 0.51,-2.53193 0.56,-2.50193 C0.673333,-2.43193 0.7475,-2.3361 0.7825,-2.21443 C0.8175,-2.09276 0.801667,-1.98026 0.735,-1.87693 C0.708333,-1.83026 0.683333,-1.79526 0.66,-1.77193 C0.636667,-1.7486 0.608333,-1.72693 0.575,-1.70693 C0.541667,-1.68693 0.489167,-1.6736 0.4175,-1.66693 C0.345833,-1.66026 0.269167,-1.65443 0.1875,-1.64943 C0.105833,-1.64443 -0.02,-1.64193 -0.19,-1.64193 L-0.865,-1.62693 L-1.215,-0.931929 C-1.365,-0.628596 -1.46083,-0.426929 -1.5025,-0.326929 C-1.54417,-0.226929 -1.565,-0.140262 -1.565,-0.0669291 C-1.565,0.0064042 -1.54417,0.0930709 -1.5025,0.193071 C-1.46083,0.293071 -1.365,0.494738 -1.215,0.798071 L-0.865,1.49307 L-0.19,1.50307 C-0.02,1.5064 0.105833,1.50974 0.1875,1.51307 C0.269167,1.5164 0.345833,1.5214 0.4175,1.52807 C0.489167,1.53474 0.541667,1.54807 0.575,1.56807 C0.608333,1.58807 0.636667,1.60974 0.66,1.63307 C0.683333,1.6564 0.708333,1.69307 0.735,1.74307 C0.801667,1.8464 0.8175,1.9589 0.7825,2.08057 C0.7475,2.20224 0.673333,2.2964 0.56,2.36307 C0.51,2.39307 0.443333,2.4114 0.36,2.41807 C0.276667,2.42474 0.075,2.42807 -0.245,2.42807 C-0.711667,2.42807 -0.995,2.40974 -1.095,2.37307 "/>
</g>

<g fill="#000000" fill-opacity="1" stroke="none" transform="matrix(1,0,0,1,0,0)"
font-family="MS Shell Dlg 2" font-size="8.25" font-weight="400" font-style="normal" 
>
</g>

<g fill="#000000" fill-opacity="1" stroke="none" transform="matrix(1,0,0,1,0,0)"
font-family="MS Shell Dlg 2" font-size="8.25" font-weight="400" font-style="normal" 
>
<path vector-effect="non-scaling-stroke" fill-rule="evenodd" d="M28.6269,24.5979 C28.6603,24.4979 28.7094,24.4012 28.7744,24.3079 C28.8394,24.2146 28.9086,24.1396 28.9819,24.0829 C29.0786,24.0096 29.3594,23.8587 29.8244,23.6304 C30.2894,23.4021 30.5753,23.2746 30.6819,23.2479 C30.9419,23.1812 31.1953,23.1812 31.4419,23.2479 C31.5686,23.2812 31.8853,23.4246 32.3919,23.6779 C32.8019,23.8812 33.0669,24.0287 33.1869,24.1204 C33.3069,24.2121 33.4036,24.3362 33.4769,24.4929 C33.5103,24.5629 33.5311,24.6454 33.5394,24.7404 C33.5478,24.8354 33.5536,25.0546 33.5569,25.3979 C33.5636,25.7479 33.5636,25.9654 33.5569,26.0504 C33.5503,26.1354 33.5319,26.2029 33.5019,26.2529 C33.4319,26.3662 33.3361,26.4404 33.2144,26.4754 C33.0928,26.5104 32.9803,26.4946 32.8769,26.4279 C32.8303,26.4012 32.7953,26.3762 32.7719,26.3529 C32.7486,26.3296 32.7269,26.3012 32.7069,26.2679 C32.6869,26.2346 32.6736,26.1821 32.6669,26.1104 C32.6603,26.0387 32.6544,25.9621 32.6494,25.8804 C32.6444,25.7987 32.6419,25.6729 32.6419,25.5029 L32.6269,24.8279 L31.9319,24.4779 C31.6286,24.3279 31.4269,24.2321 31.3269,24.1904 C31.2269,24.1487 31.1403,24.1279 31.0669,24.1279 C30.9936,24.1279 30.9069,24.1487 30.8069,24.1904 C30.7069,24.2321 30.5053,24.3279 30.2019,24.4779 L29.5069,24.8279 L29.4969,25.5029 C29.4936,25.6729 29.4903,25.7987 29.4869,25.8804 C29.4836,25.9621 29.4786,26.0387 29.4719,26.1104 C29.4653,26.1821 29.4519,26.2346 29.4319,26.2679 C29.4119,26.3012 29.3903,26.3296 29.3669,26.3529 C29.3436,26.3762 29.3069,26.4012 29.2569,26.4279 C29.1536,26.4946 29.0411,26.5104 28.9194,26.4754 C28.7978,26.4404 28.7036,26.3662 28.6369,26.2529 C28.6069,26.2029 28.5886,26.1362 28.5819,26.0529 C28.5753,25.9696 28.5719,25.7679 28.5719,25.4479 C28.5719,24.9812 28.5903,24.6979 28.6269,24.5979 "/>
</g>

<g fill="#000000" fill-opacity="1" stroke="none" transform="matrix(1,0,0,1,0,0)"
font-family="MS Shell Dlg 2" font-size="8.25" font-weight="400" font-style="normal" 
>
</g>

<g fill="#000000" fill-opacity="1" stroke="none" transform="matrix(1,0,0,1,0,0)"
font-family="MS Shell Dlg 2" font-size="8.25" font-weight="400" font-style="normal" 
>
<path vector-effect="non-scaling-stroke" fill-rule="evenodd" d="M2.37307,11.7092 C2.33974,11.8092 2.29057,11.9058 2.22557,11.9992 C2.16057,12.0925 2.0914,12.1675 2.01807,12.2242 C1.9214,12.2975 1.64057,12.4483 1.17557,12.6767 C0.710571,12.905 0.424738,13.0325 0.318071,13.0592 C0.0580709,13.1258 -0.195262,13.1258 -0.441929,13.0592 C-0.568596,13.0258 -0.885262,12.8825 -1.39193,12.6292 C-1.80193,12.4258 -2.06693,12.2783 -2.18693,12.1867 C-2.30693,12.095 -2.4036,11.9708 -2.47693,11.8142 C-2.51026,11.7442 -2.5311,11.6617 -2.53943,11.5667 C-2.54776,11.4717 -2.5536,11.2525 -2.55693,10.9092 C-2.5636,10.5592 -2.5636,10.3417 -2.55693,10.2567 C-2.55026,10.1717 -2.53193,10.1042 -2.50193,10.0542 C-2.43193,9.94084 -2.3361,9.86667 -2.21443,9.83167 C-2.09276,9.79667 -1.98026,9.81251 -1.87693,9.87917 C-1.83026,9.90584 -1.79526,9.93084 -1.77193,9.95417 C-1.7486,9.97751 -1.72693,10.0058 -1.70693,10.0392 C-1.68693,10.0725 -1.6736,10.125 -1.66693,10.1967 C-1.66026,10.2683 -1.65443,10.345 -1.64943,10.4267 C-1.64443,10.5083 -1.64193,10.6342 -1.64193,10.8042 L-1.62693,11.4792 L-0.931929,11.8292 C-0.628596,11.9792 -0.426929,12.075 -0.326929,12.1167 C-0.226929,12.1583 -0.140262,12.1792 -0.0669291,12.1792 C0.0064042,12.1792 0.0930709,12.1583 0.193071,12.1167 C0.293071,12.075 0.494738,11.9792 0.798071,11.8292 L1.49307,11.4792 L1.50307,10.8042 C1.5064,10.6342 1.50974,10.5083 1.51307,10.4267 C1.5164,10.345 1.5214,10.2683 1.52807,10.1967 C1.53474,10.125 1.54807,10.0725 1.56807,10.0392 C1.58807,10.0058 1.60974,9.97751 1.63307,9.95417 C1.6564,9.93084 1.69307,9.90584 1.74307,9.87917 C1.8464,9.81251 1.9589,9.79667 2.08057,9.83167 C2.20224,9.86667 2.2964,9.94084 2.36307,10.0542 C2.39307,10.1042 2.4114,10.1708 2.41807,10.2542 C2.42474,10.3375 2.42807,10.5392 2.42807,10.8592 C2.42807,11.3258 2.40974,11.6092 2.37307,11.7092 "/>
</g>

<g fill="#000000" fill-opacity="1" stroke="none" transform="matrix(1,0,0,1,0,0)"
font-family="MS Shell Dlg 2" font-size="8.25" font-weight="400" font-style="normal" 
>
</g>

<g fill="none" stroke="#e8dc1e" stroke-opacity="1" stroke-width="6.23622" stroke-linecap="square" stroke-linejoin="bevel" transform="matrix(1,0,0,1,0,0)"
font-family="MS Shell Dlg 2" font-size="8.25" font-weight="400" font-style="normal" 
>
</g>
</g>
</svg>
